<mxfile><diagram id="7wIBDeJpD7hRhGh3WHRt" name="Page-1"><mxGraphModel dx="655" dy="610" grid="1" gridSize="10" guides="1" tooltips="1" connect="1" arrows="1" fold="1" page="1" pageScale="1" pageWidth="850" pageHeight="1100" math="0" shadow="0"><root><mxCell id="0"/><mxCell id="1" parent="0"/><mxCell id="6" value="" style="edgeStyle=none;html=1;fillColor=#f5f5f5;strokeColor=#666666;" parent="1" source="2" target="3" edge="1"><mxGeometry relative="1" as="geometry"/></mxCell><mxCell id="2" value="parse_option()" style="whiteSpace=wrap;html=1;fillColor=#60a917;fontColor=#ffffff;strokeColor=#2D7600;" parent="1" vertex="1"><mxGeometry x="320" y="80" width="120" height="60" as="geometry"/></mxCell><mxCell id="7" value="" style="edgeStyle=none;html=1;fillColor=#f5f5f5;strokeColor=#666666;" parent="1" source="3" target="4" edge="1"><mxGeometry relative="1" as="geometry"/></mxCell><mxCell id="3" value="config" style="whiteSpace=wrap;html=1;fillColor=#0050ef;fontColor=#ffffff;strokeColor=#001DBC;" parent="1" vertex="1"><mxGeometry x="320" y="180" width="120" height="60" as="geometry"/></mxCell><mxCell id="12" style="edgeStyle=none;html=1;exitX=0;exitY=0.5;exitDx=0;exitDy=0;entryX=0.5;entryY=0;entryDx=0;entryDy=0;fillColor=#f5f5f5;strokeColor=#666666;" parent="1" source="4" target="5" edge="1"><mxGeometry relative="1" as="geometry"/></mxCell><mxCell id="22" style="edgeStyle=none;html=1;exitX=0.5;exitY=1;exitDx=0;exitDy=0;fillColor=#f5f5f5;strokeColor=#666666;" parent="1" source="4" edge="1"><mxGeometry relative="1" as="geometry"><mxPoint x="380" y="390" as="targetPoint"/></mxGeometry></mxCell><mxCell id="4" value="main(config)" style="whiteSpace=wrap;html=1;fillColor=#f0a30a;fontColor=#000000;strokeColor=#BD7000;" parent="1" vertex="1"><mxGeometry x="320" y="280" width="120" height="60" as="geometry"/></mxCell><mxCell id="5" value="train_one_epoch()&lt;br&gt;&lt;ul&gt;&lt;li&gt;trains one epoch using&amp;nbsp;configuration, model, criterion (loss function), data loader, optimizer, and epoch number.&lt;/li&gt;&lt;/ul&gt;" style="whiteSpace=wrap;html=1;fillColor=#f0a30a;fontColor=#000000;strokeColor=#BD7000;align=left;" parent="1" vertex="1"><mxGeometry x="80" y="410" width="150" height="150" as="geometry"/></mxCell><mxCell id="8" value="parse_option() goes through the&amp;nbsp;command-line arguments and sets up the configuration parameters in the config files&amp;nbsp;" style="text;align=center;html=1;verticalAlign=middle;whiteSpace=wrap;rounded=0;fillColor=none;" parent="1" vertex="1"><mxGeometry x="440" y="90" width="310" height="50" as="geometry"/></mxCell><mxCell id="9" value="Stores all the hyperparameters information&amp;nbsp;" style="text;align=center;html=1;verticalAlign=middle;whiteSpace=wrap;rounded=0;fillColor=none;" parent="1" vertex="1"><mxGeometry x="440" y="185" width="310" height="50" as="geometry"/></mxCell><mxCell id="11" value="where all the training, validation, and testing functions are called&amp;nbsp;" style="text;align=center;html=1;verticalAlign=middle;whiteSpace=wrap;rounded=0;fillColor=none;" parent="1" vertex="1"><mxGeometry x="450" y="280" width="310" height="50" as="geometry"/></mxCell><mxCell id="13" value="validate()&amp;nbsp;&lt;br&gt;&lt;ul&gt;&lt;li&gt;&lt;span style=&quot;background-color: initial;&quot;&gt;Evaluates the model on the validation dataset using the given configuration, data loader, and model. It calculates accuracy and loss.&lt;/span&gt;&lt;br&gt;&lt;/li&gt;&lt;/ul&gt;" style="whiteSpace=wrap;html=1;fillColor=#f0a30a;fontColor=#000000;strokeColor=#BD7000;align=left;" parent="1" vertex="1"><mxGeometry x="300" y="400" width="160" height="160" as="geometry"/></mxCell><mxCell id="14" value="evaluate()&amp;nbsp;&lt;br&gt;&lt;ul&gt;&lt;li&gt;Performs evaluation of the model on the test dataset using the given configuration, data loader, and model. It returns predictions&lt;/li&gt;&lt;/ul&gt;" style="whiteSpace=wrap;html=1;fillColor=#f0a30a;fontColor=#000000;strokeColor=#BD7000;align=left;" parent="1" vertex="1"><mxGeometry x="560" y="400" width="160" height="160" as="geometry"/></mxCell><mxCell id="24" style="edgeStyle=none;html=1;exitX=1;exitY=0.5;exitDx=0;exitDy=0;entryX=0.5;entryY=0;entryDx=0;entryDy=0;fillColor=#f5f5f5;strokeColor=#666666;" parent="1" source="4" target="14" edge="1"><mxGeometry relative="1" as="geometry"/></mxCell></root></mxGraphModel></diagram></mxfile>